HIERARCHY
ROOT Hips
{
	OFFSET -0.001795 -0.223333 0.028219
	CHANNELS 6 Xposition Yposition Zposition Zrotation Yrotation Xrotation 
	JOINT LeftUpLeg
	{
		OFFSET 0.069520 -0.091406 -0.006815
		CHANNELS 3 Zrotation Yrotation Xrotation
		JOINT LeftLeg
		{
			OFFSET 0.034277 -0.375199 -0.004496
			CHANNELS 3 Zrotation Yrotation Xrotation
			JOINT LeftFoot
			{
				OFFSET -0.013596 -0.397961 -0.043693
				CHANNELS 3 Zrotation Yrotation Xrotation
				JOINT LeftToe
				{
					OFFSET 0.026358 -0.055791 0.119288
					CHANNELS 3 Zrotation Yrotation Xrotation
					End Site
					{
						OFFSET 0.000000 0.000000 0.000000
					}
				}
			}
		}
	}
	JOINT RightUpLeg
	{
		OFFSET -0.067670 -0.090522 -0.004320
		CHANNELS 3 Zrotation Yrotation Xrotation
		JOINT RightLeg
		{
			OFFSET -0.038290 -0.382569 -0.008850
			CHANNELS 3 Zrotation Yrotation Xrotation
			JOINT RightFoot
			{
				OFFSET 0.015774 -0.398415 -0.042312
				CHANNELS 3 Zrotation Yrotation Xrotation
				JOINT RightToe
				{
					OFFSET -0.025372 -0.048144 0.123348
					CHANNELS 3 Zrotation Yrotation Xrotation
					End Site
					{
						OFFSET 0.000000 0.000000 0.000000
					}
				}
			}
		}
	}
	JOINT Spine
	{
		OFFSET -0.002533 0.108963 -0.026696
		CHANNELS 3 Zrotation Yrotation Xrotation
		JOINT Spine1
		{
			OFFSET 0.005487 0.135180 0.001092
			CHANNELS 3 Zrotation Yrotation Xrotation
			JOINT Spine2
			{
				OFFSET 0.001457 0.052922 0.025425
				CHANNELS 3 Zrotation Yrotation Xrotation
				JOINT Neck
				{
					OFFSET -0.002778 0.213870 -0.042857
					CHANNELS 3 Zrotation Yrotation Xrotation
					JOINT Head
					{
						OFFSET 0.005152 0.064970 0.051349
						CHANNELS 3 Zrotation Yrotation Xrotation
						End Site
						{
							OFFSET 0.000000 0.000000 0.000000
						}
					}
				}
				JOINT LeftShoulder
				{
					OFFSET 0.078845 0.121749 -0.034090
					CHANNELS 3 Zrotation Yrotation Xrotation
					JOINT LeftArm
					{
						OFFSET 0.090977 0.030469 -0.008868
						CHANNELS 3 Zrotation Yrotation Xrotation
						JOINT LeftForeArm
						{
							OFFSET 0.259612 -0.012772 -0.027456
							CHANNELS 3 Zrotation Yrotation Xrotation
							JOINT LeftHand
							{
								OFFSET 0.249234 0.008986 -0.001171
								CHANNELS 3 Zrotation Yrotation Xrotation
								End Site
								{
									OFFSET 0.000000 0.000000 0.000000
								}
							}
						}
					}
				}
				JOINT RightShoulder
				{
					OFFSET -0.081759 0.118833 -0.038615
					CHANNELS 3 Zrotation Yrotation Xrotation
					JOINT RightArm
					{
						OFFSET -0.096012 0.032551 -0.009143
						CHANNELS 3 Zrotation Yrotation Xrotation
						JOINT RightForeArm
						{
							OFFSET -0.253742 -0.013329 -0.021401
							CHANNELS 3 Zrotation Yrotation Xrotation
							JOINT RightHand
							{
								OFFSET -0.255298 0.007772 -0.005559
								CHANNELS 3 Zrotation Yrotation Xrotation
								End Site
								{
									OFFSET 0.000000 0.000000 0.000000
								}
							}
						}
					}
				}
			}
		}
	}
}
MOTION
Frames: 13
Frame Time: 0.050000
0.000000 0.943438 0.000000 -2.018168 -5.594536 -1.805272 4.518063 0.473059 7.521354 -2.046838 0.306946 -3.598394 4.151118 10.008878 6.220072 0.000000 0.000000 0.000000 2.715346 -0.368841 2.519790 1.857578 -0.127125 1.902139 -1.019404 -4.711683 4.388093 0.000000 0.000000 0.000000 3.957947 0.154190 -2.011838 -2.611565 1.238669 -1.181642 -2.643373 2.313331 10.399998 7.029609 -2.851667 -19.360198 0.000000 0.000000 0.000000 -23.914302 -13.001391 5.732478 -54.587030 -7.854904 -3.599152 0.068608 -20.017238 0.809298 0.000000 0.000000 0.000000 22.310594 2.912551 -0.326426 64.287469 -2.300310 -8.241722 0.179491 25.725142 1.012728 0.000000 0.000000 0.000000 
-0.005581 0.941289 0.001163 -2.623707 -7.220132 -1.172716 5.375102 0.407202 6.756244 -2.561358 0.357756 -3.298185 5.343554 11.973958 4.653094 0.000000 0.000000 0.000000 3.537506 -0.319660 1.732109 2.024143 -0.126798 2.251627 -0.980298 -4.239537 3.410719 0.000000 0.000000 0.000000 5.368288 0.249807 -2.781774 -3.218367 1.581202 0.781085 -2.563236 3.384618 8.818472 7.600023 -2.825419 -21.131252 0.000000 0.000000 0.000000 -24.332222 -13.287145 5.742856 -54.991759 -7.162151 -3.747358 0.353936 -19.196527 0.705920 0.000000 0.000000 0.000000 21.670980 1.706927 -0.925082 65.162669 -2.148737 -8.115323 0.370072 27.523294 1.137072 0.000000 0.000000 0.000000 
-0.011574 0.940077 0.002200 -2.242060 -7.733216 -1.799617 5.701365 0.401446 6.532150 -3.191566 0.413257 -1.473798 5.878736 12.974528 4.478679 0.000000 0.000000 0.000000 4.318475 -0.458231 2.603856 0.862399 0.003620 2.294979 -0.805656 -3.970960 3.626940 0.000000 0.000000 0.000000 5.859495 0.196366 -1.960605 -3.269993 1.563619 -0.559403 -2.829635 3.978044 9.710662 7.105004 -2.716771 -19.902788 0.000000 0.000000 0.000000 -23.598475 -12.982723 5.466291 -55.482286 -6.631427 -4.103329 0.219214 -17.996619 0.679868 0.000000 0.000000 0.000000 19.873084 2.914009 -0.011913 66.683387 -1.029658 -7.781469 0.253427 27.245871 1.134556 0.000000 0.000000 0.000000 
-0.018018 0.939414 0.003375 -2.390678 -8.807758 -2.291886 6.072130 0.425085 6.616614 -3.543367 0.463615 0.204432 6.656653 14.438680 3.919919 0.000000 0.000000 0.000000 4.975134 -0.558027 3.166624 0.991160 -0.014206 2.118377 -1.067715 -4.484272 3.401976 0.000000 0.000000 0.000000 6.594507 0.238034 -2.036169 -3.533655 1.717690 0.113231 -2.797478 4.050750 8.993330 6.925266 -2.584253 -20.326406 0.000000 0.000000 0.000000 -24.882629 -13.261079 5.807959 -55.210545 -5.111871 -4.748841 0.358826 -18.526975 0.681822 0.000000 0.000000 0.000000 20.042262 3.192270 -0.019904 66.752444 -1.264269 -7.861911 -0.407683 29.409162 1.035403 0.000000 0.000000 0.000000 
-0.024060 0.939888 0.004192 -2.269483 -9.351016 -2.922486 6.494954 0.349943 4.975919 -3.944347 0.572578 5.037379 6.630357 14.355672 3.616739 0.000000 0.000000 0.000000 5.135229 -0.683080 4.130534 1.219977 -0.053259 1.653012 -1.387716 -4.966799 2.904933 0.000000 0.000000 0.000000 7.301606 0.211592 -1.449092 -3.369614 1.626673 -0.189331 -3.266486 4.877916 9.451570 6.639562 -2.297168 -20.790738 0.000000 0.000000 0.000000 -24.433203 -13.268869 5.587393 -53.931002 -3.876327 -5.193821 -0.057460 -22.669473 0.912756 0.000000 0.000000 0.000000 19.603046 3.073249 0.124063 66.827268 -0.439327 -7.456959 0.117827 33.278476 1.423775 0.000000 0.000000 0.000000 
-0.029348 0.940818 0.005282 -2.116155 -8.271269 -3.712253 7.688454 0.235032 2.741164 -5.071296 0.914829 10.710711 6.226572 13.480684 2.909272 0.000000 0.000000 0.000000 5.424130 -0.873977 5.532596 1.287137 -0.090200 0.855760 -1.781299 -5.815239 2.891888 0.000000 0.000000 0.000000 7.243144 0.187044 -1.110863 -3.247590 1.553174 -0.666587 -3.217716 5.422168 10.358088 5.897438 -1.864511 -19.990148 0.000000 0.000000 0.000000 -22.680736 -13.329060 5.213350 -52.102602 -5.362241 -4.385306 1.205032 -30.327606 0.862489 0.000000 0.000000 0.000000 19.679802 3.797238 0.846159 65.693595 0.650673 -6.810275 -0.612228 36.239624 1.499239 0.000000 0.000000 0.000000 
-0.033386 0.941487 0.006999 -1.957008 -8.162621 -3.990103 8.510172 0.168514 -0.238626 -5.941522 1.393481 16.889321 5.834420 12.680840 3.125806 0.000000 0.000000 0.000000 4.734066 -0.819434 5.498714 1.704449 -0.088798 2.311048 -1.990664 -5.956968 2.175328 0.000000 0.000000 0.000000 7.569298 0.207745 -1.158612 -3.212702 1.514445 -1.368601 -3.347739 7.425906 10.628379 6.007389 -1.753000 -19.417076 0.000000 0.000000 0.000000 -21.864483 -12.107666 3.829725 -49.174717 -6.422226 -3.576733 2.535304 -48.305330 0.522045 0.000000 0.000000 0.000000 19.780286 3.392756 1.199146 63.336811 0.343455 -6.807871 0.763493 40.845003 2.512211 0.000000 0.000000 0.000000 
-0.036465 0.942788 0.010089 -1.942660 -5.689515 -4.052654 8.718376 0.072071 -2.798961 -5.976396 1.418671 20.504882 5.249196 11.622738 3.767920 0.000000 0.000000 0.000000 5.132325 -0.906869 5.901200 1.614190 -0.083510 2.540546 -2.809055 -7.846785 2.258230 0.000000 0.000000 0.000000 7.495386 0.408760 -3.076537 -2.763667 1.337482 -0.194781 -3.199958 8.771133 10.271671 6.245997 -1.771496 -17.929452 0.000000 0.000000 0.000000 -19.823481 -12.447810 3.201335 -45.099675 -12.698483 -0.753243 11.910729 -67.939596 -6.581324 0.000000 0.000000 0.000000 19.534846 3.136736 1.792224 61.541636 0.187120 -6.708732 0.990529 43.101114 3.135213 0.000000 0.000000 0.000000 
-0.038715 0.943627 0.014244 -1.627152 -3.957290 -4.370488 8.336774 -0.000050 -4.090513 -6.032611 1.401577 22.795818 6.104914 13.237287 3.677696 0.000000 0.000000 0.000000 5.512453 -1.103453 7.103264 0.793775 -0.006713 2.118361 -3.072071 -8.527879 2.494311 0.000000 0.000000 0.000000 6.954925 0.461565 -3.813651 -2.322014 1.110446 -1.720005 -3.093352 10.894955 11.153551 6.146083 -1.713154 -15.738619 0.000000 0.000000 0.000000 -14.934920 -14.690123 3.850918 -39.131354 -23.101671 2.489625 102.479082 -74.468892 -86.408742 0.000000 0.000000 0.000000 19.270973 4.045277 3.108587 59.646512 0.548980 -6.504761 2.666825 41.997122 3.950955 0.000000 0.000000 0.000000 
-0.039936 0.944170 0.019381 -1.419800 -2.259986 -4.536865 7.809768 -0.065592 -4.496032 -5.322839 1.039400 23.052441 6.335832 13.715447 3.964288 0.000000 0.000000 0.000000 6.020684 -1.225210 7.610137 0.236761 0.043483 1.768882 -3.704403 -9.999342 2.574682 0.000000 0.000000 0.000000 5.973640 0.423788 -3.941208 -1.713412 0.838820 -2.664675 -2.331213 11.540434 11.259868 5.320894 -1.187888 -14.670207 0.000000 0.000000 0.000000 -9.960584 -15.750445 4.365657 -29.865948 -35.392661 4.083720 124.080047 -52.581555 -86.267603 0.000000 0.000000 0.000000 18.584653 5.052112 3.977776 58.196753 1.396739 -5.997187 3.835676 39.323068 4.063137 0.000000 0.000000 0.000000 
-0.039737 0.945704 0.025221 -1.234845 -0.550307 -4.575245 7.321697 -0.116299 -4.405316 -4.735104 0.701271 21.354945 6.481913 13.891967 3.182893 0.000000 0.000000 0.000000 6.163818 -1.447986 8.907080 -0.236465 0.036749 0.270085 -3.770197 -10.531919 4.086501 0.000000 0.000000 0.000000 4.891447 0.386266 -4.147927 -1.241799 0.652601 -3.784299 -1.816120 11.906830 11.891257 4.967799 -0.742422 -15.112697 0.000000 0.000000 0.000000 -2.702508 -17.267357 5.239692 -13.599096 -46.083580 0.458436 118.133945 -31.631782 -52.739565 0.000000 0.000000 0.000000 18.694840 6.676769 5.201942 57.733275 2.319945 -5.593435 4.064415 36.609023 3.734459 0.000000 0.000000 0.000000 
-0.037692 0.946354 0.031036 -0.887066 0.831414 -3.954690 6.235245 -0.191330 -4.485658 -3.553420 0.277256 18.846025 5.586102 12.084930 2.456849 0.000000 0.000000 0.000000 6.055447 -1.586728 9.701273 -1.293186 0.058400 -1.647572 -3.888970 -11.121748 5.737424 0.000000 0.000000 0.000000 3.333280 0.345159 -4.735440 -0.845668 0.503840 -4.380991 -1.384065 11.744425 11.590287 4.556420 -0.324881 -15.709599 0.000000 0.000000 0.000000 3.531295 -16.658675 5.352085 3.699855 -51.136488 -6.774250 116.265854 -18.773750 -33.126662 0.000000 0.000000 0.000000 17.106890 7.429985 5.478934 58.829350 2.955600 -5.123057 5.263792 33.727232 3.645558 0.000000 0.000000 0.000000 
-0.033503 0.947627 0.035990 -1.379441 1.688100 -3.021346 5.961017 -0.232496 -4.641833 -2.921226 0.097553 16.547483 5.658278 12.322259 2.955813 0.000000 0.000000 0.000000 6.416937 -1.536489 9.001069 -1.693448 0.059398 -2.367544 -3.931327 -11.374224 6.799505 0.000000 0.000000 0.000000 2.645510 0.343836 -5.419792 -0.067076 0.195726 -5.134702 -0.554503 11.498841 11.630920 4.776515 -0.460634 -15.683232 0.000000 0.000000 0.000000 7.942937 -16.285345 5.474726 16.978457 -48.973283 -11.859928 118.511657 -9.841484 -20.859593 0.000000 0.000000 0.000000 15.477171 7.106373 5.057633 58.685297 3.029158 -4.895217 7.440603 32.681157 4.090225 0.000000 0.000000 0.000000 
